<?xml version="1.0" encoding="UTF-8" standalone="no"?>
<!DOCTYPE svg PUBLIC "-//W3C//DTD SVG 1.1//EN"
 "http://www.w3.org/Graphics/SVG/1.1/DTD/svg11.dtd">
<!-- Generated by graphviz version 16.1.0 (20260904.0139)
 -->
<!-- Title: model_impact_subsystems Pages: 1 -->
<svg width="1610pt" height="746pt"
 viewBox="0.00 0.00 1610.00 746.00" xmlns="http://www.w3.org/2000/svg" xmlns:xlink="http://www.w3.org/1999/xlink">
<g id="graph0" class="graph" transform="scale(1 1) rotate(0) translate(18 727.72)">
<title>model_impact_subsystems</title>
<polygon fill="white" stroke="none" points="-18,18 -18,-727.72 1592.17,-727.72 1592.17,18 -18,18"/>
<text xml:space="preserve" text-anchor="middle" x="787.08" y="-686.82" font-family="Segoe UI" font-size="21.00">V2 model change impact and baseline subsystems &#45; verified flow</text>
<!-- pbix_before -->
<g id="node1" class="node">
<title>pbix_before</title>
<path fill="#fef3c7" stroke="#475569" d="M116.14,-322.76C116.14,-322.76 61.49,-322.76 61.49,-322.76 55.49,-322.76 49.49,-316.76 49.49,-310.76 49.49,-310.76 49.49,-298.76 49.49,-298.76 49.49,-292.76 55.49,-286.76 61.49,-286.76 61.49,-286.76 116.14,-286.76 116.14,-286.76 122.14,-286.76 128.14,-292.76 128.14,-298.76 128.14,-298.76 128.14,-310.76 128.14,-310.76 128.14,-316.76 122.14,-322.76 116.14,-322.76"/>
<text xml:space="preserve" text-anchor="middle" x="88.81" y="-307.76" font-family="Segoe UI" font-size="10.00">Baseline PBIX</text>
<text xml:space="preserve" text-anchor="middle" x="88.81" y="-295.76" font-family="Segoe UI" font-size="10.00">read&#45;only input</text>
</g>
<!-- snap_before -->
<g id="node3" class="node">
<title>snap_before</title>
<path fill="#ccfbf1" stroke="#475569" d="M453.99,-474.52C453.99,-474.52 341.57,-474.52 341.57,-474.52 335.57,-474.52 329.57,-468.52 329.57,-462.52 329.57,-462.52 329.57,-439 329.57,-439 329.57,-433 335.57,-427 341.57,-427 341.57,-427 453.99,-427 453.99,-427 459.99,-427 465.99,-433 465.99,-439 465.99,-439 465.99,-462.52 465.99,-462.52 465.99,-468.52 459.99,-474.52 453.99,-474.52"/>
<text xml:space="preserve" text-anchor="middle" x="397.78" y="-459.76" font-family="Segoe UI" font-size="10.00">snapshot.build_snapshot()</text>
<text xml:space="preserve" text-anchor="middle" x="397.78" y="-447.76" font-family="Segoe UI" font-size="10.00">PBIXRay semantic metadata</text>
<text xml:space="preserve" text-anchor="middle" x="397.78" y="-435.76" font-family="Segoe UI" font-size="10.00">optional raw SQL enrichment</text>
</g>
<!-- pbix_before&#45;&gt;snap_before -->
<g id="edge1" class="edge">
<title>pbix_before&#45;&gt;snap_before</title>
<path fill="none" stroke="#475569" d="M128.4,-298.76C139.77,-298.76 149.17,-298.76 149.17,-298.76 149.17,-298.76 149.17,-432.59 149.17,-432.59 149.17,-432.59 320.68,-432.59 320.68,-432.59"/>
<polygon fill="#475569" stroke="#475569" points="320.68,-435.04 327.68,-432.59 320.68,-430.14 320.68,-435.04"/>
<text xml:space="preserve" text-anchor="middle" x="247.77" y="-444.16" font-family="Segoe UI" font-size="8.00">PBIXRay</text>
</g>
<!-- layout_before -->
<g id="node5" class="node">
<title>layout_before</title>
<path fill="#ccfbf1" stroke="#475569" d="M465.65,-328.52C465.65,-328.52 329.91,-328.52 329.91,-328.52 323.91,-328.52 317.91,-322.52 317.91,-316.52 317.91,-316.52 317.91,-293 317.91,-293 317.91,-287 323.91,-281 329.91,-281 329.91,-281 465.65,-281 465.65,-281 471.65,-281 477.65,-287 477.65,-293 477.65,-293 477.65,-316.52 477.65,-316.52 477.65,-322.52 471.65,-328.52 465.65,-328.52"/>
<text xml:space="preserve" text-anchor="middle" x="397.78" y="-313.76" font-family="Segoe UI" font-size="10.00">report_layout.build_report_layout()</text>
<text xml:space="preserve" text-anchor="middle" x="397.78" y="-301.76" font-family="Segoe UI" font-size="10.00">PBIR or legacy ZIP parsing</text>
<text xml:space="preserve" text-anchor="middle" x="397.78" y="-289.76" font-family="Segoe UI" font-size="10.00">pages, visuals, fields, filters</text>
</g>
<!-- pbix_before&#45;&gt;layout_before -->
<g id="edge3" class="edge">
<title>pbix_before&#45;&gt;layout_before</title>
<path fill="none" stroke="#475569" d="M128.57,-310.76C128.57,-310.76 308.92,-310.76 308.92,-310.76"/>
<polygon fill="#475569" stroke="#475569" points="308.92,-313.21 315.92,-310.76 308.92,-308.31 308.92,-313.21"/>
<text xml:space="preserve" text-anchor="middle" x="247.77" y="-307.16" font-family="Segoe UI" font-size="8.00">ZIP read</text>
</g>
<!-- base -->
<g id="node12" class="node">
<title>base</title>
<path fill="#ccfbf1" stroke="#475569" d="M463.43,-158.52C463.43,-158.52 332.13,-158.52 332.13,-158.52 326.13,-158.52 320.13,-152.52 320.13,-146.52 320.13,-146.52 320.13,-111 320.13,-111 320.13,-105 326.13,-99 332.13,-99 332.13,-99 463.43,-99 463.43,-99 469.43,-99 475.43,-105 475.43,-111 475.43,-111 475.43,-146.52 475.43,-146.52 475.43,-152.52 469.43,-158.52 463.43,-158.52"/>
<text xml:space="preserve" text-anchor="middle" x="397.78" y="-143.76" font-family="Segoe UI" font-size="10.00">baseline_estimation.build_report()</text>
<text xml:space="preserve" text-anchor="middle" x="397.78" y="-131.76" font-family="Segoe UI" font-size="10.00">select/trace all objects</text>
<text xml:space="preserve" text-anchor="middle" x="397.78" y="-119.76" font-family="Segoe UI" font-size="10.00">requirements mapping</text>
<text xml:space="preserve" text-anchor="middle" x="397.78" y="-107.76" font-family="Segoe UI" font-size="10.00">visual descriptions</text>
</g>
<!-- pbix_before&#45;&gt;base -->
<g id="edge18" class="edge">
<title>pbix_before&#45;&gt;base</title>
<path fill="none" stroke="#475569" d="M89.17,-286.41C89.17,-245.95 89.17,-152.64 89.17,-152.64 89.17,-152.64 311.39,-152.64 311.39,-152.64"/>
<polygon fill="#475569" stroke="#475569" points="311.39,-155.09 318.39,-152.64 311.39,-150.19 311.39,-155.09"/>
<text xml:space="preserve" text-anchor="middle" x="247.77" y="-235.16" font-family="Segoe UI" font-size="8.00">one PBIX snapshot + layout</text>
</g>
<!-- pbix_after -->
<g id="node2" class="node">
<title>pbix_after</title>
<path fill="#fef3c7" stroke="#475569" d="M116.14,-443.76C116.14,-443.76 61.49,-443.76 61.49,-443.76 55.49,-443.76 49.49,-437.76 49.49,-431.76 49.49,-431.76 49.49,-419.76 49.49,-419.76 49.49,-413.76 55.49,-407.76 61.49,-407.76 61.49,-407.76 116.14,-407.76 116.14,-407.76 122.14,-407.76 128.14,-413.76 128.14,-419.76 128.14,-419.76 128.14,-431.76 128.14,-431.76 128.14,-437.76 122.14,-443.76 116.14,-443.76"/>
<text xml:space="preserve" text-anchor="middle" x="88.81" y="-428.76" font-family="Segoe UI" font-size="10.00">Changed PBIX</text>
<text xml:space="preserve" text-anchor="middle" x="88.81" y="-416.76" font-family="Segoe UI" font-size="10.00">read&#45;only input</text>
</g>
<!-- snap_after -->
<g id="node4" class="node">
<title>snap_after</title>
<path fill="#ccfbf1" stroke="#475569" d="M453.99,-547.52C453.99,-547.52 341.57,-547.52 341.57,-547.52 335.57,-547.52 329.57,-541.52 329.57,-535.52 329.57,-535.52 329.57,-512 329.57,-512 329.57,-506 335.57,-500 341.57,-500 341.57,-500 453.99,-500 453.99,-500 459.99,-500 465.99,-506 465.99,-512 465.99,-512 465.99,-535.52 465.99,-535.52 465.99,-541.52 459.99,-547.52 453.99,-547.52"/>
<text xml:space="preserve" text-anchor="middle" x="397.78" y="-532.76" font-family="Segoe UI" font-size="10.00">snapshot.build_snapshot()</text>
<text xml:space="preserve" text-anchor="middle" x="397.78" y="-520.76" font-family="Segoe UI" font-size="10.00">PBIXRay semantic metadata</text>
<text xml:space="preserve" text-anchor="middle" x="397.78" y="-508.76" font-family="Segoe UI" font-size="10.00">optional raw SQL enrichment</text>
</g>
<!-- pbix_after&#45;&gt;snap_after -->
<g id="edge2" class="edge">
<title>pbix_after&#45;&gt;snap_after</title>
<path fill="none" stroke="#475569" d="M128.49,-438.17C150.78,-438.17 174.17,-438.17 174.17,-438.17 174.17,-438.17 174.17,-514.26 174.17,-514.26 174.17,-514.26 320.66,-514.26 320.66,-514.26"/>
<polygon fill="#475569" stroke="#475569" points="320.66,-516.71 327.66,-514.26 320.66,-511.81 320.66,-516.71"/>
<text xml:space="preserve" text-anchor="middle" x="247.77" y="-509.16" font-family="Segoe UI" font-size="8.00">PBIXRay</text>
</g>
<!-- layout_after -->
<g id="node6" class="node">
<title>layout_after</title>
<path fill="#ccfbf1" stroke="#475569" d="M465.65,-401.52C465.65,-401.52 329.91,-401.52 329.91,-401.52 323.91,-401.52 317.91,-395.52 317.91,-389.52 317.91,-389.52 317.91,-366 317.91,-366 317.91,-360 323.91,-354 329.91,-354 329.91,-354 465.65,-354 465.65,-354 471.65,-354 477.65,-360 477.65,-366 477.65,-366 477.65,-389.52 477.65,-389.52 477.65,-395.52 471.65,-401.52 465.65,-401.52"/>
<text xml:space="preserve" text-anchor="middle" x="397.78" y="-386.76" font-family="Segoe UI" font-size="10.00">report_layout.build_report_layout()</text>
<text xml:space="preserve" text-anchor="middle" x="397.78" y="-374.76" font-family="Segoe UI" font-size="10.00">PBIR or legacy ZIP parsing</text>
<text xml:space="preserve" text-anchor="middle" x="397.78" y="-362.76" font-family="Segoe UI" font-size="10.00">pages, visuals, fields, filters</text>
</g>
<!-- pbix_after&#45;&gt;layout_after -->
<g id="edge4" class="edge">
<title>pbix_after&#45;&gt;layout_after</title>
<path fill="none" stroke="#475569" d="M128.47,-414.38C195.55,-414.38 324.17,-414.38 324.17,-414.38 324.17,-414.38 324.17,-410.5 324.17,-410.5"/>
<polygon fill="#475569" stroke="#475569" points="326.62,-410.5 324.17,-403.5 321.72,-410.5 326.62,-410.5"/>
<text xml:space="preserve" text-anchor="middle" x="247.77" y="-388.16" font-family="Segoe UI" font-size="8.00">ZIP read</text>
</g>
<!-- diff -->
<g id="node7" class="node">
<title>diff</title>
<path fill="#ccfbf1" stroke="#475569" d="M778.67,-533.52C778.67,-533.52 641.57,-533.52 641.57,-533.52 635.57,-533.52 629.57,-527.52 629.57,-521.52 629.57,-521.52 629.57,-486 629.57,-486 629.57,-480 635.57,-474 641.57,-474 641.57,-474 778.67,-474 778.67,-474 784.67,-474 790.67,-480 790.67,-486 790.67,-486 790.67,-521.52 790.67,-521.52 790.67,-527.52 784.67,-533.52 778.67,-533.52"/>
<text xml:space="preserve" text-anchor="middle" x="710.12" y="-518.76" font-family="Segoe UI" font-size="10.00">diff.diff_snapshots()</text>
<text xml:space="preserve" text-anchor="middle" x="710.12" y="-506.76" font-family="Segoe UI" font-size="10.00">stable lineage tags then identity</text>
<text xml:space="preserve" text-anchor="middle" x="710.12" y="-494.76" font-family="Segoe UI" font-size="10.00">added/removed/changed/unchanged</text>
<text xml:space="preserve" text-anchor="middle" x="710.12" y="-482.76" font-family="Segoe UI" font-size="10.00">rename candidates</text>
</g>
<!-- snap_before&#45;&gt;diff -->
<g id="edge5" class="edge">
<title>snap_before&#45;&gt;diff</title>
<path fill="none" stroke="#475569" d="M466.18,-455.2C535.68,-455.2 633.17,-455.2 633.17,-455.2 633.17,-455.2 633.17,-465.04 633.17,-465.04"/>
<polygon fill="#475569" stroke="#475569" points="630.72,-465.04 633.17,-472.04 635.62,-465.04 630.72,-465.04"/>
<text xml:space="preserve" text-anchor="middle" x="545.53" y="-486.16" font-family="Segoe UI" font-size="8.00">baseline snapshot</text>
</g>
<!-- impact -->
<g id="node8" class="node">
<title>impact</title>
<path fill="#ccfbf1" stroke="#475569" d="M1039.01,-480.52C1039.01,-480.52 921.77,-480.52 921.77,-480.52 915.77,-480.52 909.77,-474.52 909.77,-468.52 909.77,-468.52 909.77,-433 909.77,-433 909.77,-427 915.77,-421 921.77,-421 921.77,-421 1039.01,-421 1039.01,-421 1045.01,-421 1051.01,-427 1051.01,-433 1051.01,-433 1051.01,-468.52 1051.01,-468.52 1051.01,-474.52 1045.01,-480.52 1039.01,-480.52"/>
<text xml:space="preserve" text-anchor="middle" x="980.39" y="-465.76" font-family="Segoe UI" font-size="10.00">impact.analyze_impact()</text>
<text xml:space="preserve" text-anchor="middle" x="980.39" y="-453.76" font-family="Segoe UI" font-size="10.00">DAX dependency graph</text>
<text xml:space="preserve" text-anchor="middle" x="980.39" y="-441.76" font-family="Segoe UI" font-size="10.00">reverse dependent walk</text>
<text xml:space="preserve" text-anchor="middle" x="980.39" y="-429.76" font-family="Segoe UI" font-size="10.00">visual bindings + dangling refs</text>
</g>
<!-- snap_before&#45;&gt;impact -->
<g id="edge8" class="edge">
<title>snap_before&#45;&gt;impact</title>
<path fill="none" stroke="#475569" d="M466.33,-445.8C466.33,-445.8 900.86,-445.8 900.86,-445.8"/>
<polygon fill="#475569" stroke="#475569" points="900.86,-448.25 907.86,-445.8 900.86,-443.35 900.86,-448.25"/>
<text xml:space="preserve" text-anchor="middle" x="710.12" y="-442.16" font-family="Segoe UI" font-size="8.00">DAX/model context</text>
</g>
<!-- snap_after&#45;&gt;diff -->
<g id="edge6" class="edge">
<title>snap_after&#45;&gt;diff</title>
<path fill="none" stroke="#475569" d="M466.33,-516.76C466.33,-516.76 620.78,-516.76 620.78,-516.76"/>
<polygon fill="#475569" stroke="#475569" points="620.78,-519.21 627.78,-516.76 620.78,-514.31 620.78,-519.21"/>
<text xml:space="preserve" text-anchor="middle" x="545.53" y="-526.16" font-family="Segoe UI" font-size="8.00">changed snapshot</text>
</g>
<!-- snap_after&#45;&gt;impact -->
<g id="edge9" class="edge">
<title>snap_after&#45;&gt;impact</title>
<path fill="none" stroke="#475569" d="M466.3,-540.52C620.25,-540.52 980.17,-540.52 980.17,-540.52 980.17,-540.52 980.17,-489.16 980.17,-489.16"/>
<polygon fill="#475569" stroke="#475569" points="982.62,-489.16 980.17,-482.16 977.72,-489.16 982.62,-489.16"/>
<text xml:space="preserve" text-anchor="middle" x="710.12" y="-586.16" font-family="Segoe UI" font-size="8.00">DAX/model context</text>
</g>
<!-- layout_diff -->
<g id="node9" class="node">
<title>layout_diff</title>
<path fill="#ccfbf1" stroke="#475569" d="M758.68,-329.52C758.68,-329.52 661.56,-329.52 661.56,-329.52 655.56,-329.52 649.56,-323.52 649.56,-317.52 649.56,-317.52 649.56,-294 649.56,-294 649.56,-288 655.56,-282 661.56,-282 661.56,-282 758.68,-282 758.68,-282 764.68,-282 770.68,-288 770.68,-294 770.68,-294 770.68,-317.52 770.68,-317.52 770.68,-323.52 764.68,-329.52 758.68,-329.52"/>
<text xml:space="preserve" text-anchor="middle" x="710.12" y="-314.76" font-family="Segoe UI" font-size="10.00">compare_report_layouts()</text>
<text xml:space="preserve" text-anchor="middle" x="710.12" y="-302.76" font-family="Segoe UI" font-size="10.00">metadata&#45;level visual diff</text>
<text xml:space="preserve" text-anchor="middle" x="710.12" y="-290.76" font-family="Segoe UI" font-size="10.00">not pixel rendering</text>
</g>
<!-- layout_before&#45;&gt;layout_diff -->
<g id="edge11" class="edge">
<title>layout_before&#45;&gt;layout_diff</title>
<path fill="none" stroke="#475569" d="M477.81,-305.26C477.81,-305.26 641.02,-305.26 641.02,-305.26"/>
<polygon fill="#475569" stroke="#475569" points="641.02,-307.71 648.02,-305.26 641.02,-302.81 641.02,-307.71"/>
<text xml:space="preserve" text-anchor="middle" x="545.53" y="-307.16" font-family="Segoe UI" font-size="8.00">before metadata</text>
</g>
<!-- layout_after&#45;&gt;impact -->
<g id="edge10" class="edge">
<title>layout_after&#45;&gt;impact</title>
<path fill="none" stroke="#475569" d="M472.17,-401.95C472.17,-418.1 472.17,-436.4 472.17,-436.4 472.17,-436.4 900.94,-436.4 900.94,-436.4"/>
<polygon fill="#475569" stroke="#475569" points="900.94,-438.85 907.94,-436.4 900.94,-433.95 900.94,-438.85"/>
<text xml:space="preserve" text-anchor="middle" x="710.12" y="-382.16" font-family="Segoe UI" font-size="8.00">changed visual bindings</text>
</g>
<!-- layout_after&#45;&gt;layout_diff -->
<g id="edge12" class="edge">
<title>layout_after&#45;&gt;layout_diff</title>
<path fill="none" stroke="#475569" d="M477.82,-377.76C570.38,-377.76 710.17,-377.76 710.17,-377.76 710.17,-377.76 710.17,-338.25 710.17,-338.25"/>
<polygon fill="#475569" stroke="#475569" points="712.62,-338.25 710.17,-331.25 707.72,-338.25 712.62,-338.25"/>
<text xml:space="preserve" text-anchor="middle" x="545.53" y="-351.16" font-family="Segoe UI" font-size="8.00">after metadata</text>
</g>
<!-- diff&#45;&gt;impact -->
<g id="edge7" class="edge">
<title>diff&#45;&gt;impact</title>
<path fill="none" stroke="#475569" d="M787.17,-473.68C787.17,-468.42 787.17,-464.6 787.17,-464.6 787.17,-464.6 901.02,-464.6 901.02,-464.6"/>
<polygon fill="#475569" stroke="#475569" points="901.02,-467.05 908.02,-464.6 901.02,-462.15 901.02,-467.05"/>
<text xml:space="preserve" text-anchor="middle" x="857.49" y="-495.16" font-family="Segoe UI" font-size="8.00">changed objects</text>
</g>
<!-- excel -->
<g id="node10" class="node">
<title>excel</title>
<path fill="#ccfbf1" stroke="#475569" d="M1323.66,-474.52C1323.66,-474.52 1195.72,-474.52 1195.72,-474.52 1189.72,-474.52 1183.72,-468.52 1183.72,-462.52 1183.72,-462.52 1183.72,-439 1183.72,-439 1183.72,-433 1189.72,-427 1195.72,-427 1195.72,-427 1323.66,-427 1323.66,-427 1329.66,-427 1335.66,-433 1335.66,-439 1335.66,-439 1335.66,-462.52 1335.66,-462.52 1335.66,-468.52 1329.66,-474.52 1323.66,-474.52"/>
<text xml:space="preserve" text-anchor="middle" x="1259.69" y="-459.76" font-family="Segoe UI" font-size="10.00">excel_report.build_excel_report()</text>
<text xml:space="preserve" text-anchor="middle" x="1259.69" y="-447.76" font-family="Segoe UI" font-size="10.00">Summary + Impact Summary</text>
<text xml:space="preserve" text-anchor="middle" x="1259.69" y="-435.76" font-family="Segoe UI" font-size="10.00">changed object sheets</text>
</g>
<!-- diff&#45;&gt;excel -->
<g id="edge14" class="edge">
<title>diff&#45;&gt;excel</title>
<path fill="none" stroke="#475569" d="M791.14,-507.02C938.24,-507.02 1234.17,-507.02 1234.17,-507.02 1234.17,-507.02 1234.17,-483.46 1234.17,-483.46"/>
<polygon fill="#475569" stroke="#475569" points="1236.62,-483.46 1234.17,-476.46 1231.72,-483.46 1236.62,-483.46"/>
<text xml:space="preserve" text-anchor="middle" x="980.39" y="-585.16" font-family="Segoe UI" font-size="8.00">diff result</text>
</g>
<!-- impact&#45;&gt;excel -->
<g id="edge13" class="edge">
<title>impact&#45;&gt;excel</title>
<path fill="none" stroke="#475569" d="M1051.23,-450.76C1051.23,-450.76 1175.02,-450.76 1175.02,-450.76"/>
<polygon fill="#475569" stroke="#475569" points="1175.02,-453.21 1182.02,-450.76 1175.02,-448.31 1175.02,-453.21"/>
<text xml:space="preserve" text-anchor="middle" x="1118.17" y="-453.16" font-family="Segoe UI" font-size="8.00">impact result</text>
</g>
<!-- layout_diff&#45;&gt;excel -->
<g id="edge15" class="edge">
<title>layout_diff&#45;&gt;excel</title>
<path fill="none" stroke="#475569" d="M771,-305.76C909.1,-305.76 1234.17,-305.76 1234.17,-305.76 1234.17,-305.76 1234.17,-418.3 1234.17,-418.3"/>
<polygon fill="#475569" stroke="#475569" points="1231.72,-418.3 1234.17,-425.3 1236.62,-418.3 1231.72,-418.3"/>
<text xml:space="preserve" text-anchor="middle" x="980.39" y="-330.16" font-family="Segoe UI" font-size="8.00">actual report changes</text>
</g>
<!-- rtm -->
<g id="node15" class="node">
<title>rtm</title>
<path fill="#fef3c7" stroke="#475569" d="M1562.17,-148.52C1562.17,-148.52 1445.87,-148.52 1445.87,-148.52 1439.87,-148.52 1433.87,-142.52 1433.87,-136.52 1433.87,-136.52 1433.87,-101 1433.87,-101 1433.87,-95 1439.87,-89 1445.87,-89 1445.87,-89 1562.17,-89 1562.17,-89 1568.17,-89 1574.17,-95 1574.17,-101 1574.17,-101 1574.17,-136.52 1574.17,-136.52 1574.17,-142.52 1568.17,-148.52 1562.17,-148.52"/>
<text xml:space="preserve" text-anchor="middle" x="1504.02" y="-133.76" font-family="Segoe UI" font-size="10.00">RTM Excel output</text>
<text xml:space="preserve" text-anchor="middle" x="1504.02" y="-121.76" font-family="Segoe UI" font-size="10.00">Baseline Estimation</text>
<text xml:space="preserve" text-anchor="middle" x="1504.02" y="-109.76" font-family="Segoe UI" font-size="10.00">Requirement Copy</text>
<text xml:space="preserve" text-anchor="middle" x="1504.02" y="-97.76" font-family="Segoe UI" font-size="10.00">Visual Impact by Requirement</text>
</g>
<!-- excel&#45;&gt;rtm -->
<g id="edge16" class="edge">
<title>excel&#45;&gt;rtm</title>
<path fill="none" stroke="#475569" d="M1285.17,-426.55C1285.17,-353.83 1285.17,-142.26 1285.17,-142.26 1285.17,-142.26 1425.05,-142.26 1425.05,-142.26"/>
<polygon fill="#475569" stroke="#475569" points="1425.05,-144.71 1432.05,-142.26 1425.05,-139.81 1425.05,-144.71"/>
<text xml:space="preserve" text-anchor="middle" x="1384.76" y="-292.16" font-family="Segoe UI" font-size="8.00">openpyxl write</text>
</g>
<!-- baseline_ui -->
<g id="node11" class="node">
<title>baseline_ui</title>
<path fill="#dbeafe" stroke="#475569" d="M165.63,-146.76C165.63,-146.76 12,-146.76 12,-146.76 6,-146.76 0,-140.76 0,-134.76 0,-134.76 0,-122.76 0,-122.76 0,-116.76 6,-110.76 12,-110.76 12,-110.76 165.63,-110.76 165.63,-110.76 171.63,-110.76 177.63,-116.76 177.63,-122.76 177.63,-122.76 177.63,-134.76 177.63,-134.76 177.63,-140.76 171.63,-146.76 165.63,-146.76"/>
<text xml:space="preserve" text-anchor="middle" x="88.81" y="-131.76" font-family="Segoe UI" font-size="10.00">Baseline Estimation tab</text>
<text xml:space="preserve" text-anchor="middle" x="88.81" y="-119.76" font-family="Segoe UI" font-size="10.00">one PBIX + optional Requirements.xlsx</text>
</g>
<!-- baseline_ui&#45;&gt;base -->
<g id="edge17" class="edge">
<title>baseline_ui&#45;&gt;base</title>
<path fill="none" stroke="#475569" d="M177.77,-128.76C177.77,-128.76 311.18,-128.76 311.18,-128.76"/>
<polygon fill="#475569" stroke="#475569" points="311.18,-131.21 318.18,-128.76 311.18,-126.31 311.18,-131.21"/>
<text xml:space="preserve" text-anchor="middle" x="247.77" y="-131.16" font-family="Segoe UI" font-size="8.00">BaselineEstimationWorker</text>
</g>
<!-- req -->
<g id="node13" class="node">
<title>req</title>
<path fill="#ccfbf1" stroke="#475569" d="M794.83,-59.52C794.83,-59.52 625.41,-59.52 625.41,-59.52 619.41,-59.52 613.41,-53.52 613.41,-47.52 613.41,-47.52 613.41,-12 613.41,-12 613.41,-6 619.41,0 625.41,0 625.41,0 794.83,0 794.83,0 800.83,0 806.83,-6 806.83,-12 806.83,-12 806.83,-47.52 806.83,-47.52 806.83,-53.52 800.83,-59.52 794.83,-59.52"/>
<text xml:space="preserve" text-anchor="middle" x="710.12" y="-44.76" font-family="Segoe UI" font-size="10.00">requirements.py + requirement_mapping.py</text>
<text xml:space="preserve" text-anchor="middle" x="710.12" y="-32.76" font-family="Segoe UI" font-size="10.00">validate workbook</text>
<text xml:space="preserve" text-anchor="middle" x="710.12" y="-20.76" font-family="Segoe UI" font-size="10.00">map visual id/name/title</text>
<text xml:space="preserve" text-anchor="middle" x="710.12" y="-8.76" font-family="Segoe UI" font-size="10.00">expand DAX dependencies</text>
</g>
<!-- base&#45;&gt;req -->
<g id="edge19" class="edge">
<title>base&#45;&gt;req</title>
<path fill="none" stroke="#475569" stroke-dasharray="5,2" d="M475.84,-108.25C539.57,-108.25 619.17,-108.25 619.17,-108.25 619.17,-108.25 619.17,-68.4 619.17,-68.4"/>
<polygon fill="#475569" stroke="#475569" points="621.62,-68.4 619.17,-61.4 616.72,-68.4 621.62,-68.4"/>
<text xml:space="preserve" text-anchor="middle" x="545.53" y="-32.16" font-family="Segoe UI" font-size="8.00">optional requirements path</text>
</g>
<!-- desc -->
<g id="node14" class="node">
<title>desc</title>
<path fill="#ccfbf1" stroke="#475569" d="M768.31,-256.52C768.31,-256.52 651.93,-256.52 651.93,-256.52 645.93,-256.52 639.93,-250.52 639.93,-244.52 639.93,-244.52 639.93,-221 639.93,-221 639.93,-215 645.93,-209 651.93,-209 651.93,-209 768.31,-209 768.31,-209 774.31,-209 780.31,-215 780.31,-221 780.31,-221 780.31,-244.52 780.31,-244.52 780.31,-250.52 774.31,-256.52 768.31,-256.52"/>
<text xml:space="preserve" text-anchor="middle" x="710.12" y="-241.76" font-family="Segoe UI" font-size="10.00">visual_descriptions.py</text>
<text xml:space="preserve" text-anchor="middle" x="710.12" y="-229.76" font-family="Segoe UI" font-size="10.00">fingerprint + deterministic text</text>
<text xml:space="preserve" text-anchor="middle" x="710.12" y="-217.76" font-family="Segoe UI" font-size="10.00">cache/history reuse</text>
</g>
<!-- base&#45;&gt;desc -->
<g id="edge21" class="edge">
<title>base&#45;&gt;desc</title>
<path fill="none" stroke="#475569" d="M398.17,-158.84C398.17,-189.56 398.17,-232.76 398.17,-232.76 398.17,-232.76 631.21,-232.76 631.21,-232.76"/>
<polygon fill="#475569" stroke="#475569" points="631.21,-235.21 638.21,-232.76 631.21,-230.31 631.21,-235.21"/>
<text xml:space="preserve" text-anchor="middle" x="545.53" y="-235.16" font-family="Segoe UI" font-size="8.00">visual rows</text>
</g>
<!-- base&#45;&gt;rtm -->
<g id="edge23" class="edge">
<title>base&#45;&gt;rtm</title>
<path fill="none" stroke="#475569" d="M475.57,-126.75C475.57,-126.75 1425.02,-126.75 1425.02,-126.75"/>
<polygon fill="#475569" stroke="#475569" points="1425.02,-129.2 1432.02,-126.75 1425.02,-124.3 1425.02,-129.2"/>
<text xml:space="preserve" text-anchor="middle" x="980.39" y="-100.16" font-family="Segoe UI" font-size="8.00">openpyxl write</text>
</g>
<!-- history -->
<g id="node16" class="node">
<title>history</title>
<path fill="#fef3c7" stroke="#475569" d="M771.46,-183.52C771.46,-183.52 648.78,-183.52 648.78,-183.52 642.78,-183.52 636.78,-177.52 636.78,-171.52 636.78,-171.52 636.78,-148 636.78,-148 636.78,-142 642.78,-136 648.78,-136 648.78,-136 771.46,-136 771.46,-136 777.46,-136 783.46,-142 783.46,-148 783.46,-148 783.46,-171.52 783.46,-171.52 783.46,-177.52 777.46,-183.52 771.46,-183.52"/>
<text xml:space="preserve" text-anchor="middle" x="710.12" y="-168.76" font-family="Segoe UI" font-size="10.00">history_store.py</text>
<text xml:space="preserve" text-anchor="middle" x="710.12" y="-156.76" font-family="Segoe UI" font-size="10.00">SQLite impact_history.db</text>
<text xml:space="preserve" text-anchor="middle" x="710.12" y="-144.76" font-family="Segoe UI" font-size="10.00">runs/object_state/change_events</text>
</g>
<!-- base&#45;&gt;history -->
<g id="edge22" class="edge">
<title>base&#45;&gt;history</title>
<path fill="none" stroke="#475569" d="M475.79,-147.26C475.79,-147.26 627.81,-147.26 627.81,-147.26"/>
<polygon fill="#475569" stroke="#475569" points="627.81,-149.71 634.81,-147.26 627.81,-144.81 627.81,-149.71"/>
<text xml:space="preserve" text-anchor="middle" x="545.53" y="-162.16" font-family="Segoe UI" font-size="8.00">record run</text>
</g>
<!-- req&#45;&gt;base -->
<g id="edge20" class="edge">
<title>req&#45;&gt;base</title>
<path fill="none" stroke="#475569" d="M624.17,-59.96C624.17,-85.34 624.17,-117.5 624.17,-117.5 624.17,-117.5 484.21,-117.5 484.21,-117.5"/>
<polygon fill="#475569" stroke="#475569" points="484.21,-115.05 477.21,-117.5 484.21,-119.95 484.21,-115.05"/>
<text xml:space="preserve" text-anchor="middle" x="545.53" y="-72.16" font-family="Segoe UI" font-size="8.00">selections + attribution</text>
</g>
<!-- errors -->
<g id="node17" class="node">
<title>errors</title>
<path fill="#fee2e2" stroke="#475569" d="M1040.62,-676.52C1040.62,-676.52 920.15,-676.52 920.15,-676.52 914.15,-676.52 908.15,-670.52 908.15,-664.52 908.15,-664.52 908.15,-629 908.15,-629 908.15,-623 914.15,-617 920.15,-617 920.15,-617 1040.62,-617 1040.62,-617 1046.62,-617 1052.62,-623 1052.62,-629 1052.62,-629 1052.62,-664.52 1052.62,-664.52 1052.62,-670.52 1046.62,-676.52 1040.62,-676.52"/>
<text xml:space="preserve" text-anchor="middle" x="980.39" y="-661.76" font-family="Segoe UI" font-size="10.00">Errors</text>
<text xml:space="preserve" text-anchor="middle" x="980.39" y="-649.76" font-family="Segoe UI" font-size="10.00">unsupported layout flagged</text>
<text xml:space="preserve" text-anchor="middle" x="980.39" y="-637.76" font-family="Segoe UI" font-size="10.00">PBIX/Excel permission failures</text>
<text xml:space="preserve" text-anchor="middle" x="980.39" y="-625.76" font-family="Segoe UI" font-size="10.00">worker failed signal</text>
</g>
<!-- errors&#45;&gt;excel -->
<g id="edge24" class="edge">
<title>errors&#45;&gt;excel</title>
<path fill="none" stroke="#475569" stroke-dasharray="5,2" d="M1053,-646.76C1143.15,-646.76 1285.17,-646.76 1285.17,-646.76 1285.17,-646.76 1285.17,-483.31 1285.17,-483.31"/>
<polygon fill="#475569" stroke="#475569" points="1287.62,-483.31 1285.17,-476.31 1282.72,-483.31 1287.62,-483.31"/>
<text xml:space="preserve" text-anchor="middle" x="1118.17" y="-649.16" font-family="Segoe UI" font-size="8.00">failure/unsupported input</text>
</g>
<!-- legend -->
<g id="node18" class="node">
<title>legend</title>
<path fill="white" stroke="#475569" stroke-dasharray="5,2" d="M158.25,-528.52C158.25,-528.52 19.37,-528.52 19.37,-528.52 13.37,-528.52 7.37,-522.52 7.37,-516.52 7.37,-516.52 7.37,-481 7.37,-481 7.37,-475 13.37,-469 19.37,-469 19.37,-469 158.25,-469 158.25,-469 164.25,-469 170.25,-475 170.25,-481 170.25,-481 170.25,-516.52 170.25,-516.52 170.25,-522.52 164.25,-528.52 158.25,-528.52"/>
<text xml:space="preserve" text-anchor="middle" x="88.81" y="-513.76" font-family="Segoe UI" font-size="10.00">Legend</text>
<text xml:space="preserve" text-anchor="middle" x="88.81" y="-501.76" font-family="Segoe UI" font-size="10.00">solid = verified call/data flow</text>
<text xml:space="preserve" text-anchor="middle" x="88.81" y="-489.76" font-family="Segoe UI" font-size="10.00">dashed = optional requirements path</text>
<text xml:space="preserve" text-anchor="middle" x="88.81" y="-477.76" font-family="Segoe UI" font-size="10.00">red = error/report limitation</text>
</g>
</g>
</svg>
